# xmcd
#
# Track frame offsets:
#	150
#	18537
#	37303
#	52849
#	67629
#	82975
#	99026
#	117412
#	136181
#	151762
#	166548
#	181852
#
# Disc length: 2638 seconds
#
# Revision: 1
# Processed by: cddbd v1.5.2PL0 Copyright (c) Steve Scherf et al.
# Submitted via: audiograbber 1.83.01
#
DISCID=7f0a4c0c
DTITLE=Karaoke Country Hot Hits - Country Chartbusters Vol.199
DYEAR=1900
DGENRE=Karaoke
TTITLE0=Every Man For Himself (Guide Vocals)
TTITLE1=I Lost It (Guide Vocals)
TTITLE2=I Can't Lie To Me (Guide Vocals)
TTITLE3=I'm Gonna Love You Anyway (Guide Vocals)
TTITLE4=She's Gone (Guide Vocals)
TTITLE5=Take Me With You When You Go (Guide Vocals)
TTITLE6=Every Man For Himself (Performance Tracks)
TTITLE7=I Lost It (Performance Tracks)
TTITLE8=I Can't Lie To Me (Performance Tracks)
TTITLE9=I'm Gonna Love You Anyway (Performance Tracks)
TTITLE10=She's Gone (Performance Tracks)
TTITLE11=Take Me With You When You Go (Performance Tracks)
EXTD=
EXTT0=
EXTT1=
EXTT2=
EXTT3=
EXTT4=
EXTT5=
EXTT6=
EXTT7=
EXTT8=
EXTT9=
EXTT10=
EXTT11=
PLAYORDER=
